# xmcd
#
# Track frame offsets:
#	150
#	16385
#	37670
#	54775
#	67705
#	81422
#	95365
#	105810
#	120552
#	133842
#	146940
#	160817
#	175252
#	185945
#
# Disc length: 2679 seconds
#
# Revision: 1
# Processed by: cddbd v1.4PL0 Copyright (c) Steve Scherf et al.
# Submitted via: EasyCDDAExtractor 5.1.0
#
DISCID=b10a750e
DTITLE=Various Artist - Sertanejo Pra Sempre
DYEAR=1900
DGENRE=Country
TTITLE0=João Mineiro e Marciano - Se Eu Não Puder Te Esquecer
TTITLE1=Chitãozinho e Xororó - Falando às Paredes
TTITLE2=João Renes e Reny - Por Que Chora a Tarde
TTITLE3=Cheiro da Terra - Estrela de Fogo
TTITLE4=Alan e Aladim - Liguei Pra Dizer Que Te Amo
TTITLE5=Primas Miranda - Perto de Ti (Muy Cerca de Ti)
TTITLE6=Irídio e Irineu - Bica D'água
TTITLE7=Zé Fortuna e Pitangueira - Paineira Velha
TTITLE8=Gilberto e Gilmar - Fuscão Preto
TTITLE9=Creone e Barrerito - O Menino da Porteira
TTITLE10=Liu e Léo - Saudade de Minha Terra
TTITLE11=Coutinho e Rogério Cardoso - Margarida e Aparecido
TTITLE12=Tibagi e Miltinho - Quero Beijar-te As Mãos
TTITLE13=Gino e Geno - As Águas do São Francisco
EXTD=
EXTT0=
EXTT1=
EXTT2=
EXTT3=
EXTT4=
EXTT5=
EXTT6=
EXTT7=
EXTT8=
EXTT9=
EXTT10=
EXTT11=
EXTT12=
EXTT13=
PLAYORDER=
